<?xml version="1.0" encoding="UTF-8"?>
<!DOCTYPE svg PUBLIC "-//W3C//DTD SVG 1.1//EN" "http://www.w3.org/Graphics/SVG/1.1/DTD/svg11.dtd">
<svg xmlns="http://www.w3.org/2000/svg" version="1.1" width="720px" height="720px" style="shape-rendering:geometricPrecision; text-rendering:geometricPrecision; image-rendering:optimizeQuality; fill-rule:evenodd; clip-rule:evenodd" xmlns:xlink="http://www.w3.org/1999/xlink">
<g><path style="opacity:1" fill="#2f5597" d="M -0.5,-0.5 C 239.5,-0.5 479.5,-0.5 719.5,-0.5C 719.5,239.5 719.5,479.5 719.5,719.5C 479.5,719.5 239.5,719.5 -0.5,719.5C -0.5,479.5 -0.5,239.5 -0.5,-0.5 Z"/></g>
<g><path style="opacity:1" fill="#2e9fdb" d="M 205.5,139.5 C 330.332,138.5 455.332,138.167 580.5,138.5C 580.5,153.5 580.5,168.5 580.5,183.5C 473.833,183.667 367.166,183.5 260.5,183C 242.5,168.01 224.167,153.51 205.5,139.5 Z"/></g>
<g><path style="opacity:1" fill="#2ea0db" d="M 138.5,138.5 C 146.604,144.091 154.604,149.924 162.5,156C 301.667,265.833 440.833,375.667 580,485.5C 580.833,517.172 580.667,548.839 579.5,580.5C 432.758,464.713 285.924,349.046 139,233.5C 138.5,201.835 138.333,170.168 138.5,138.5 Z"/></g>
<g><path style="opacity:1" fill="#616e76" d="M 580.5,209.5 C 580.167,209.5 579.833,209.5 579.5,209.5C 484.665,209.167 389.999,209.501 295.5,210.5C 294.957,210.44 294.624,210.107 294.5,209.5C 389.999,208.168 485.332,208.168 580.5,209.5 Z"/></g>
<g><path style="opacity:1" fill="#f8ba13" d="M 295.5,210.5 C 389.999,209.501 484.665,209.167 579.5,209.5C 579.5,224.167 579.5,238.833 579.5,253.5C 503.167,253.5 426.833,253.5 350.5,253.5C 332.348,238.925 314.015,224.592 295.5,210.5 Z"/></g>
<g><path style="opacity:1" fill="#daab26" d="M 579.5,209.5 C 579.833,209.5 580.167,209.5 580.5,209.5C 580.5,224.5 580.5,239.5 580.5,254.5C 503.665,254.833 426.998,254.499 350.5,253.5C 426.833,253.5 503.167,253.5 579.5,253.5C 579.5,238.833 579.5,224.167 579.5,209.5 Z"/></g>
<g><path style="opacity:1" fill="#618c60" d="M 580.5,280.5 C 515.331,280.168 450.331,280.501 385.5,281.5C 384.957,281.44 384.624,281.107 384.5,280.5C 449.999,279.168 515.332,279.168 580.5,280.5 Z"/></g>
<g><path style="opacity:1" fill="#93c32b" d="M 385.5,281.5 C 450.331,280.501 515.331,280.168 580.5,280.5C 580.5,295.5 580.5,310.5 580.5,325.5C 533.832,325.667 487.165,325.5 440.5,325C 422.5,310.01 404.167,295.51 385.5,281.5 Z"/></g>
<g><path style="opacity:1" fill="#93c32b" d="M 333.5,437.5 C 268.669,438.499 203.669,438.832 138.5,438.5C 138.5,423.5 138.5,408.5 138.5,393.5C 185.168,393.333 231.835,393.5 278.5,394C 296.864,408.509 315.197,423.009 333.5,437.5 Z"/></g>
<g><path style="opacity:1" fill="#588369" d="M 333.5,437.5 C 334.043,437.56 334.376,437.893 334.5,438.5C 269.001,439.832 203.668,439.832 138.5,438.5C 203.669,438.832 268.669,438.499 333.5,437.5 Z"/></g>
<g><path style="opacity:1" fill="#e5b11e" d="M 368.5,465.5 C 292.167,465.5 215.833,465.5 139.5,465.5C 139.5,480.167 139.5,494.833 139.5,509.5C 139.167,509.5 138.833,509.5 138.5,509.5C 138.5,494.5 138.5,479.5 138.5,464.5C 215.335,464.167 292.002,464.501 368.5,465.5 Z"/></g>
<g><path style="opacity:1" fill="#f8ba13" d="M 368.5,465.5 C 387.015,479.592 405.348,493.925 423.5,508.5C 329.001,509.499 234.335,509.833 139.5,509.5C 139.5,494.833 139.5,480.167 139.5,465.5C 215.833,465.5 292.167,465.5 368.5,465.5 Z"/></g>
<g><path style="opacity:1" fill="#506580" d="M 423.5,508.5 C 424.043,508.56 424.376,508.893 424.5,509.5C 329.001,510.832 233.668,510.832 138.5,509.5C 138.833,509.5 139.167,509.5 139.5,509.5C 234.335,509.833 329.001,509.499 423.5,508.5 Z"/></g>
<g><path style="opacity:1" fill="#2ea0db" d="M 139.5,535.5 C 245.834,535.333 352.167,535.5 458.5,536C 476.753,550.279 494.753,564.779 512.5,579.5C 388.167,579.5 263.833,579.5 139.5,579.5C 139.5,564.833 139.5,550.167 139.5,535.5 Z"/></g>
<g><path style="opacity:1" fill="#2e91ce" d="M 139.5,535.5 C 139.5,550.167 139.5,564.833 139.5,579.5C 263.833,579.5 388.167,579.5 512.5,579.5C 388.57,580.5 263.903,580.833 138.5,580.5C 138.171,565.324 138.504,550.324 139.5,535.5 Z"/></g>
</svg>
