<?xml version="1.0" encoding="UTF-8"?>
<!DOCTYPE svg PUBLIC "-//W3C//DTD SVG 1.1//EN" "http://www.w3.org/Graphics/SVG/1.1/DTD/svg11.dtd">
<svg xmlns="http://www.w3.org/2000/svg" version="1.1" width="1382px" height="1382px" style="shape-rendering:geometricPrecision; text-rendering:geometricPrecision; image-rendering:optimizeQuality; fill-rule:evenodd; clip-rule:evenodd" xmlns:xlink="http://www.w3.org/1999/xlink">
<g><path style="opacity:0.999" fill="#2d9fda" d="M -0.5,-0.5 C 1.5,-0.5 3.5,-0.5 5.5,-0.5C 463.764,361.638 922.431,723.304 1381.5,1084.5C 1381.5,1183.5 1381.5,1282.5 1381.5,1381.5C 1379.83,1381.5 1378.17,1381.5 1376.5,1381.5C 917.812,1019.48 458.812,657.816 -0.5,296.5C -0.5,197.5 -0.5,98.5 -0.5,-0.5 Z"/></g>
<g><path style="opacity:0.998" fill="#2d9fda" d="M 205.5,-0.5 C 597.5,-0.5 989.5,-0.5 1381.5,-0.5C 1381.5,46.8333 1381.5,94.1667 1381.5,141.5C 1049.17,141.667 716.833,141.5 384.5,141C 324.646,93.9695 264.98,46.8029 205.5,-0.5 Z"/></g>
<g><path style="opacity:0.993" fill="#f7b912" d="M 1381.5,220.5 C 1381.5,267.833 1381.5,315.167 1381.5,362.5C 1142.5,362.667 903.5,362.5 664.5,362C 604.879,315.381 545.546,268.381 486.5,221C 784.833,220.5 1083.17,220.333 1381.5,220.5 Z"/></g>
<g><path style="opacity:0.992" fill="#93c329" d="M 1381.5,441.5 C 1381.5,488.833 1381.5,536.167 1381.5,583.5C 1236.17,583.667 1090.83,583.5 945.5,583C 885.652,536.241 825.985,489.241 766.5,442C 971.5,441.5 1176.5,441.333 1381.5,441.5 Z"/></g>
<g><path style="opacity:0.991" fill="#93c329" d="M -0.5,797.5 C 145.167,797.333 290.834,797.5 436.5,798C 496.121,844.619 555.454,891.619 614.5,939C 409.5,939.5 204.5,939.667 -0.5,939.5C -0.5,892.167 -0.5,844.833 -0.5,797.5 Z"/></g>
<g><path style="opacity:0.993" fill="#f7b912" d="M -0.5,1018.5 C 238.5,1018.33 477.5,1018.5 716.5,1019C 776.001,1065.67 835.335,1112.51 894.5,1159.5C 596.167,1160.5 297.834,1160.83 -0.5,1160.5C -0.5,1113.17 -0.5,1065.83 -0.5,1018.5 Z"/></g>
<g><path style="opacity:0.999" fill="#2d9fda" d="M -0.5,1239.5 C 332.167,1239.33 664.834,1239.5 997.5,1240C 1057.09,1286.95 1116.42,1334.11 1175.5,1381.5C 783.5,1381.5 391.5,1381.5 -0.5,1381.5C -0.5,1334.17 -0.5,1286.83 -0.5,1239.5 Z"/></g>
</svg>
