<?xml version="1.0" encoding="UTF-8"?>
<!DOCTYPE svg PUBLIC "-//W3C//DTD SVG 1.1//EN" "http://www.w3.org/Graphics/SVG/1.1/DTD/svg11.dtd">
<svg xmlns="http://www.w3.org/2000/svg" version="1.1" width="2634px" height="585px" style="shape-rendering:geometricPrecision; text-rendering:geometricPrecision; image-rendering:optimizeQuality; fill-rule:evenodd; clip-rule:evenodd" xmlns:xlink="http://www.w3.org/1999/xlink">
<g><path style="opacity:0.997" fill="#2d9fda" d="M -0.5,-0.5 C 0.166667,-0.5 0.833333,-0.5 1.5,-0.5C 195.434,152.255 389.267,305.255 583,458.5C 583.5,500.499 583.667,542.499 583.5,584.5C 582.5,584.5 581.5,584.5 580.5,584.5C 387.054,431.603 193.387,278.937 -0.5,126.5C -0.5,84.1667 -0.5,41.8333 -0.5,-0.5 Z"/></g>
<g><path style="opacity:0.993" fill="#2d9fda" d="M 86.5,-0.5 C 252.167,-0.5 417.833,-0.5 583.5,-0.5C 583.5,19.8333 583.5,40.1667 583.5,60.5C 442.833,60.6667 302.166,60.5 161.5,60C 137.167,41 112.833,22 88.5,3C 87.1772,2.18405 86.5106,1.01739 86.5,-0.5 Z"/></g>
<g><path style="opacity:0.999" fill="#f7b912" d="M 204.5,94.5 C 330.666,93.5004 456.999,93.1671 583.5,93.5C 583.5,113.833 583.5,134.167 583.5,154.5C 482.499,154.667 381.499,154.5 280.5,154C 255.291,133.952 229.958,114.119 204.5,94.5 Z"/></g>
<g><path style="opacity:0.99" fill="#5e5c5c" d="M 860.5,95.5 C 905.447,91.7699 946.114,102.937 982.5,129C 991.833,137 1000.5,145.667 1008.5,155C 997.311,164.356 985.978,173.523 974.5,182.5C 943.555,153.42 906.889,141.92 864.5,148C 839.523,149.909 818.356,159.742 801,177.5C 786.098,197.99 788.598,215.823 808.5,231C 814.712,234.273 821.046,237.273 827.5,240C 860.833,248.667 894.167,257.333 927.5,266C 954.513,273.339 978.847,285.672 1000.5,303C 1023.84,328.19 1031.68,357.69 1024,391.5C 1020.45,407.594 1013.45,421.927 1003,434.5C 974.036,464.898 938.536,482.398 896.5,487C 856.343,492.721 817.343,488.388 779.5,474C 752.091,462.254 729.758,444.254 712.5,420C 723.618,410.602 734.952,401.436 746.5,392.5C 784.841,427.511 829.841,440.678 881.5,432C 907.641,428.969 930.141,418.469 949,400.5C 962.097,383.925 962.764,366.925 951,349.5C 943.925,342.433 935.759,336.933 926.5,333C 892.008,323.044 857.341,313.71 822.5,305C 799.993,299.077 779.326,289.411 760.5,276C 733.407,251.722 723.24,221.556 730,185.5C 735.874,159.627 749.707,139.127 771.5,124C 798.675,106.552 828.342,97.052 860.5,95.5 Z"/></g>
<g><path style="opacity:0.993" fill="#5e5c5c" d="M 1379.5,103.5 C 1446.17,103.333 1512.83,103.5 1579.5,104C 1615.41,109.871 1641.58,129.038 1658,161.5C 1668.94,189.024 1669.27,216.691 1659,244.5C 1652.52,258.649 1643.36,270.816 1631.5,281C 1671.99,306.712 1688.82,343.546 1682,391.5C 1674.29,430.87 1652.13,458.704 1615.5,475C 1607.7,477.821 1599.7,479.821 1591.5,481C 1520.83,481.5 1450.17,481.667 1379.5,481.5C 1379.5,355.5 1379.5,229.5 1379.5,103.5 Z M 1443.5,141.5 C 1476.17,141.333 1508.84,141.5 1541.5,142C 1579.24,145.244 1599.91,165.744 1603.5,203.5C 1601.17,236.664 1583.84,257.164 1551.5,265C 1515.5,265.5 1479.5,265.667 1443.5,265.5C 1443.5,224.167 1443.5,182.833 1443.5,141.5 Z M 1443.5,304.5 C 1481.83,304.333 1520.17,304.5 1558.5,305C 1588.41,309.908 1608.24,326.741 1618,355.5C 1624.93,394.15 1610.76,421.983 1575.5,439C 1569.02,441.286 1562.36,442.619 1555.5,443C 1518.17,443.5 1480.83,443.667 1443.5,443.5C 1443.5,397.167 1443.5,350.833 1443.5,304.5 Z"/></g>
<g><path style="opacity:0.992" fill="#2d9fda" d="M 1984.5,122.5 C 2008.39,120.513 2023.89,130.847 2031,153.5C 2034.42,176.719 2025.26,192.553 2003.5,201C 1986.03,204.956 1971.53,200.122 1960,186.5C 1947.66,165.356 1950.5,146.523 1968.5,130C 1973.54,126.643 1978.88,124.143 1984.5,122.5 Z"/></g>
<g><path style="opacity:0.99" fill="#93c329" d="M 323.5,186.5 C 410.167,186.5 496.833,186.5 583.5,186.5C 583.5,206.833 583.5,227.167 583.5,247.5C 521.832,247.667 460.166,247.5 398.5,247C 373.833,227.667 349.167,208.333 324.5,189C 323.748,188.329 323.414,187.496 323.5,186.5 Z"/></g>
<g><path style="opacity:0.99" fill="#5e5c5c" d="M 1193.5,209.5 C 1255.15,210.56 1299.65,238.56 1327,293.5C 1337.41,319.633 1340.41,346.633 1336,374.5C 1325.99,422.513 1298.82,457.013 1254.5,478C 1216.02,493.568 1177.69,493.235 1139.5,477C 1077.99,444.147 1051.82,392.981 1061,323.5C 1068.46,286.715 1087.29,257.215 1117.5,235C 1140.44,219.105 1165.77,210.605 1193.5,209.5 Z M 1194.5,248.5 C 1217.83,248.917 1236.67,258.25 1251,276.5C 1274.41,309.673 1280.74,346.007 1270,385.5C 1262.52,409.619 1248.36,428.786 1227.5,443C 1193.89,457.133 1166.06,449.633 1144,420.5C 1122.04,387.114 1116.37,351.114 1127,312.5C 1134.03,289.154 1147.53,270.654 1167.5,257C 1176.09,252.444 1185.09,249.61 1194.5,248.5 Z"/></g>
<g><path style="opacity:0.988" fill="#5e5c5c" d="M 1860.5,209.5 C 1880.65,209.23 1899.65,213.73 1917.5,223C 1907.63,239.916 1897.63,256.749 1887.5,273.5C 1861.48,255.82 1835.82,256.32 1810.5,275C 1798.75,285.675 1791.58,298.842 1789,314.5C 1788.5,370.166 1788.33,425.832 1788.5,481.5C 1767.5,481.5 1746.5,481.5 1725.5,481.5C 1725.5,393.5 1725.5,305.5 1725.5,217.5C 1746.5,217.5 1767.5,217.5 1788.5,217.5C 1788.33,224.841 1788.5,232.174 1789,239.5C 1809.3,221.013 1833.14,211.013 1860.5,209.5 Z"/></g>
<g><path style="opacity:0.993" fill="#5e5c5c" d="M 2193.5,209.5 C 2221.23,209.054 2246.4,216.721 2269,232.5C 2269.5,227.177 2269.67,221.844 2269.5,216.5C 2290.5,216.5 2311.5,216.5 2332.5,216.5C 2332.5,304.833 2332.5,393.167 2332.5,481.5C 2311.5,481.5 2290.5,481.5 2269.5,481.5C 2269.67,476.489 2269.5,471.489 2269,466.5C 2231.55,491.209 2191.72,495.709 2149.5,480C 2096.5,452.877 2069.17,409.377 2067.5,349.5C 2068.69,295.253 2092.03,253.753 2137.5,225C 2155.17,215.752 2173.84,210.585 2193.5,209.5 Z M 2198.5,260.5 C 2221.68,259.833 2240.52,268.5 2255,286.5C 2277.11,317.119 2282.11,350.452 2270,386.5C 2261.81,407.068 2247.97,422.568 2228.5,433C 2198.04,443.287 2172.54,436.121 2152,411.5C 2133.57,386.757 2127.23,359.09 2133,328.5C 2138.73,298.15 2155.57,276.65 2183.5,264C 2188.6,262.64 2193.6,261.474 2198.5,260.5 Z"/></g>
<g><path style="opacity:0.988" fill="#5e5c5c" d="M 2633.5,305.5 C 2633.5,364.167 2633.5,422.833 2633.5,481.5C 2612.5,481.5 2591.5,481.5 2570.5,481.5C 2570.67,425.499 2570.5,369.499 2570,313.5C 2562.65,280.653 2542.15,262.986 2508.5,260.5C 2487.18,261.243 2470.34,270.243 2458,287.5C 2451.55,296.836 2447.89,307.17 2447,318.5C 2446.5,372.832 2446.33,427.166 2446.5,481.5C 2425.5,481.5 2404.5,481.5 2383.5,481.5C 2383.5,393.5 2383.5,305.5 2383.5,217.5C 2404.5,217.5 2425.5,217.5 2446.5,217.5C 2446.33,225.174 2446.5,232.841 2447,240.5C 2475.27,214.469 2508.44,204.969 2546.5,212C 2582.76,220.71 2608.93,241.877 2625,275.5C 2628.79,285.356 2631.63,295.356 2633.5,305.5 Z"/></g>
<g><path style="opacity:0.985" fill="#5e5c5c" d="M 1960.5,222.5 C 1965.76,224.421 1971.09,226.254 1976.5,228C 1992.48,231.328 2007.82,229.495 2022.5,222.5C 2023.5,308.831 2023.83,395.164 2023.5,481.5C 2002.5,481.5 1981.5,481.5 1960.5,481.5C 1960.5,395.167 1960.5,308.833 1960.5,222.5 Z"/></g>
<g><path style="opacity:0.992" fill="#93c329" d="M -0.5,337.5 C 61.1676,337.333 122.834,337.5 184.5,338C 209.5,357.667 234.5,377.333 259.5,397C 172.834,397.5 86.1673,397.667 -0.5,397.5C -0.5,377.5 -0.5,357.5 -0.5,337.5 Z"/></g>
<g><path style="opacity:0.999" fill="#f7b912" d="M -0.5,430.5 C 100.501,430.333 201.501,430.5 302.5,431C 327.833,451 353.167,471 378.5,491C 252.167,491.5 125.834,491.667 -0.5,491.5C -0.5,471.167 -0.5,450.833 -0.5,430.5 Z"/></g>
<g><path style="opacity:0.998" fill="#2d9fda" d="M -0.5,524.5 C 140.5,524.333 281.5,524.5 422.5,525C 447.419,544.612 472.086,564.446 496.5,584.5C 330.833,584.5 165.167,584.5 -0.5,584.5C -0.5,564.5 -0.5,544.5 -0.5,524.5 Z"/></g>
</svg>
